<?xml version="1.0" encoding="utf-8"?>
<!-- Generator: Adobe Illustrator 17.0.0, SVG Export Plug-In . SVG Version: 6.00 Build 0)  -->
<!DOCTYPE svg PUBLIC "-//W3C//DTD SVG 1.1//EN" "http://www.w3.org/Graphics/SVG/1.1/DTD/svg11.dtd">
<svg version="1.1" id="Layer_1" xmlns="http://www.w3.org/2000/svg" xmlns:xlink="http://www.w3.org/1999/xlink" x="0px" y="0px"
	 width="214px" height="300px" viewBox="0 0 214 300" enable-background="new 0 0 214 300" xml:space="preserve">
<g>
	<path fill="none" stroke="#000000" stroke-width="12" stroke-miterlimit="10" d="M40.025,109.122c0,0-48.104-23.632-6.1-52.239
		c0,0-2.975-44.465,50.29-34.826c0,0,30.776-32.338,59.579,0.933c0,0,59.184-10.68,48.925,35.55c0,0,22.812,21.81-6.206,43.005"/>
	<g>
		<path fill="#151011" d="M5.042,156.786c-0.623-48.837,90.389-44.464,79.168-42.763c0,0,54.545,0.837,63.896-0.918
			c0,0,16.831-3.591,19.636,0c2.805,3.591,4.987,8.45,0,8.45s-90.077,4.616-97.869,2.187c-7.792-2.43-4.987,25.755-3.74,28.185
			s-1.416,4.653-1.416,4.653c-0.936,0.782-1.687,2.296-1.67,3.365c0,0,5.579,50.052,3.085,43.249
			c-2.424-31.327,23.954,93.251,8.727,93.301c0,0-11.844,2.43-22.441,0.729c0,0,3.117-4.131,0-4.616
			c-3.117-0.486-1.87-7.532,0-8.261s0.623-6.56,0.312-7.289c-0.312-0.729,0.101-8.737,1.247-14.821l-1.518-73.135
			c-0.022-1.069-0.126-2.816-0.23-3.882c0,0-3.55-36.208,0.19-63.421c0,0-33.727,14.335-33.558,49.065
			c0,0,29.105,37.199,16.015,39.872s-14.707-2.348-19.038-7.461"/>
	</g>
	<path fill="#151011" d="M196.118,161.559c1.766,21.219-7.377,15.388,0.312,44.221c0,0,5.922,5.345,10.286,5.345
		c0,0-2.493,5.345-5.922,6.317s-4.052,6.074-3.429,9.233s2.493,12.149-1.558,17.251c0,0-0.312,18.223,5.61,29.885
		c1.85,3.643,2.182,18.709-3.74,20.167c-10.516,2.589-102.834-0.645-99.739-0.243c0,0-8.727-6.803-9.974-21.624
		c-1.247-14.821,9.974-1.458,9.974,1.701s20.571,10.691,33.35,9.476s39.896-3.645,43.013-1.458c3.117,2.187,5.922,5.831,9.662-6.803
		s-4.052-13.849-0.312-67.789c0,0-5.299-13.363-0.623-47.136c0,0-23.688-17.008-25.247-34.016c0,0,5.922,0,12.467,6.56"/>
	
		<image overflow="visible" enable-background="new    " width="512" height="512" xlink:href="4762604B.png"  transform="matrix(0.2208 0 0 0.2208 56.9063 11.359)">
	</image>
	<path stroke="#000000" stroke-miterlimit="10" d="M79.908,160.181c0,0-4.607,1.843-5.989,0s1.843-24.648,5.989-28.564
		c4.146-3.916,48.145-3.916,49.757-2.304c1.613,1.613,1.843,4.474,0,5.462s-39.391,0-39.391,0s1.382,55.352,2.073,57.656
		s-3.686,3.916-5.529,3.455s0-61.111,0-61.111s-8.523,7.668-8.523,11.354C78.296,149.815,79.908,160.181,79.908,160.181z"/>
	<path fill="none" stroke="#000000" stroke-miterlimit="10" d="M154.922,180.658"/>
	<path stroke="#000000" stroke-miterlimit="10" d="M98.717,192.867c0,0-2.534-45.974-0.921-45.216s4.819-2.698,4.483,16.652h3.58
		c0,0-0.461-17.64,2.304-16.652c2.764,0.988-1.382-10.3,7.832,46.599h-4.607l-3.225-25.8l-5.883-0.23l2.198,26.03
		C104.476,194.249,97.565,196.322,98.717,192.867z"/>
	<path stroke="#000000" stroke-miterlimit="10" d="M118.912,194.866c0,0-1.843-45.92-0.768-45.92c0,0,14.896-0.479,15.357,0.836
		c0.461,1.314,1.689,5.768-0.768,5.615c-2.457-0.154-9.829-0.461-9.829-0.461l-0.154,16.171c0,0,6.296-1.183,6.604,0
		s2.304,5.21-5.375,3.58v15.417c0,0,10.187,1.382,10.238,0.307s4.044,0.773,0.972,4.456h-16.277V194.866z"/>
	<path stroke="#000000" stroke-miterlimit="10" d="M159.093,266.768c0,0-3.916-46.587,0-46.041c0,0,13.361-1.49,15.204-0.012
		s4.723,18.704,0.577,20.835c0,0-0.127,1.376-7.148,0.454l10.373,24.763c0,0-4.263-0.346-6.336,0s-6.22-11.632-7.141-16.009
		l0.23,15.974L159.093,266.768z"/>
	<path stroke="#000000" stroke-miterlimit="10" d="M122.647,202.932c0,0,4.607,13.107,3.686,18.875c0,0,1.472,42.937,0.122,46.006
		c0,0-21.929,1.586-23.158,1.099s-4.607-7.186-3.071-7.829c1.536-0.644,5.836,4.338,5.836,4.338l15.357-2.525
		c0,0,2.15-42.693-4.3-57.743C117.119,205.152,102.683,199.176,122.647,202.932z"/>
	<path fill="#FFFFFF" stroke="#000000" stroke-miterlimit="10" d="M162.999,238.889l0.614-12.612c0,0,7.064-1.555,8.293,0
		s0,11.691,0,11.691S171.599,240.117,162.999,238.889z"/>
	<g>
		<path stroke="#000000" stroke-miterlimit="10" d="M133.523,266.733c0,0,0.614-46.859,3.993-46.006h7.755
			c0,0,12.324,44.357,9.445,46.006h-5.413c0,0-2.649-22.891-3.34-23.003s-6.22,0-6.22,0l-1.037,23.003
			C138.706,266.733,135.136,266.812,133.523,266.733z"/>
		<path fill="#FFFFFF" stroke="#000000" stroke-miterlimit="10" d="M138.13,240.565c0,0,0.979-13.533,2.016-13.706
			c1.037-0.173,2.419,0,2.419,0l2.822,13.706H138.13z"/>
	</g>
	<path fill="none" stroke="#000000" stroke-width="3" stroke-miterlimit="10" d="M94.712,42.011"/>
	<path fill="none" stroke="#000000" stroke-width="3" stroke-miterlimit="10" d="M137.891,41.544"/>
	<path fill="none" stroke="#000000" stroke-width="3" stroke-miterlimit="10" d="M172.176,87.206"/>
	<path fill="none" stroke="#000000" stroke-width="3" stroke-miterlimit="10" d="M167.345,60.401"/>
</g>
</svg>
